<svg width="500" height="207" viewBox="0 0 500 207" fill="none" xmlns="http://www.w3.org/2000/svg">
<g clip-path="url(#clip0_810_280)">
<path d="M452.114 52.4641C438.564 64.5282 426.598 78.2624 416.505 93.3378C400.909 117.087 388.605 161.357 387.519 176.918C387.442 178.087 385.906 193.352 402.41 193.789C404.123 193.817 405.827 193.537 407.442 192.964C407.886 192.809 408.33 192.64 408.76 192.45C411.561 191.208 413.889 189.098 415.398 186.431C416.286 184.497 416.839 182.426 417.033 180.307C417.59 175.515 417.202 169.18 416.469 160.744C414.708 140.462 415.765 116.284 425.631 93.3519C435.497 70.4204 452.946 54.5289 455.292 52.4782C457.287 50.7023 457.35 47.9327 452.114 52.4641Z" fill="#2E9999"/>
<path d="M402.728 206.833H402.065C391.234 206.551 384.828 201.9 381.368 198.074C374.511 190.47 374.13 180.998 374.511 176.03C375.124 167.277 378.676 151.59 383.552 136.093C383.832 135.207 383.9 134.268 383.749 133.351C383.598 132.434 383.234 131.566 382.684 130.816C382.135 130.067 381.417 129.457 380.588 129.037C379.76 128.617 378.844 128.398 377.914 128.398H322.474V123.465H377.907C379.61 123.466 381.288 123.867 382.807 124.636C384.325 125.405 385.642 126.521 386.649 127.893C387.657 129.265 388.328 130.855 388.608 132.534C388.887 134.213 388.768 135.935 388.26 137.559C383.482 152.725 380.014 167.961 379.43 176.375C379.105 180.604 379.43 188.518 385.067 194.754C387.886 197.876 393.143 201.646 402.22 201.893H402.763C405.251 201.875 407.719 201.452 410.071 200.639H410.12C410.825 200.392 411.452 200.145 412.058 199.878H412.114C416.497 197.91 420.135 194.591 422.495 190.406L422.692 190.04C423.986 187.278 424.799 184.315 425.095 181.28C425.716 175.924 425.37 169.455 424.553 160.082C424.102 154.881 423.883 149.737 423.89 144.79C423.935 139.12 426.221 133.698 430.249 129.708C434.278 125.718 439.721 123.484 445.391 123.493H500V128.426H445.37C441.006 128.415 436.814 130.131 433.71 133.199C430.605 136.267 428.841 140.439 428.802 144.804C428.802 149.603 429.007 154.599 429.451 159.659C430.289 169.342 430.649 176.079 429.972 181.858C429.616 185.448 428.643 188.95 427.097 192.21L426.787 192.802C423.903 197.915 419.457 201.97 414.102 204.374H414.024C413.32 204.705 412.53 205.001 411.706 205.29H411.635C408.771 206.291 405.762 206.812 402.728 206.833V206.833Z" fill="#2E9999"/>
<path d="M64.3776 186.861C60.8567 192.919 55.6047 197.786 49.2966 200.836C42.785 204.073 35.2022 205.689 26.5483 205.685H0.00146484V124.409H26.5483C35.2022 124.409 42.785 126.054 49.2966 129.342C55.6305 132.494 60.8811 137.462 64.3776 143.613C67.92 149.828 69.6912 157.071 69.6912 165.339C69.6912 173.608 67.92 180.782 64.3776 186.861ZM48.3593 187.446C53.4615 182.062 56.0149 174.693 56.0196 165.339C56.0196 155.91 53.4662 148.525 48.3593 143.183C43.2525 137.841 35.9821 135.17 26.5483 135.17H13.3136V195.515H26.5271C35.9751 195.515 43.2525 192.826 48.3593 187.446V187.446Z" fill="#2E9999"/>
<path d="M89.5857 134.705V159.37H117.648V169.659H89.5857V195.269H121.136V205.677H76.2524V124.282H121.136V134.691L89.5857 134.705Z" fill="#2E9999"/>
<path d="M138.585 124.409L162.545 191.886L186.753 124.409H200.91L170.389 205.685H154.963L124.314 124.409H138.585Z" fill="#2E9999"/>
<path d="M218.69 134.705V159.37H246.752V169.659H218.69V195.269H250.262V205.677H205.357V124.282H250.262V134.691L218.69 134.705Z" fill="#2E9999"/>
<path d="M312.474 124.409V134.853H290.839V205.685H277.506V134.853H255.737V124.409H312.474Z" fill="#2E9999"/>
</g>
<defs>
<clipPath id="clip0_810_280">
<rect width="500" height="207" fill="white"/>
</clipPath>
</defs>
</svg>
