<svg width="500" height="207" viewBox="0 0 500 207" fill="none" xmlns="http://www.w3.org/2000/svg">
<path d="M452.114 2.4641C438.564 14.5282 426.598 28.2624 416.505 43.3378C400.909 67.0869 388.605 111.357 387.519 126.918C387.442 128.087 385.906 143.352 402.41 143.789C404.123 143.817 405.827 143.537 407.442 142.964C407.886 142.809 408.33 142.64 408.76 142.45C411.561 141.208 413.889 139.098 415.398 136.431C416.286 134.497 416.839 132.426 417.033 130.307C417.59 125.515 417.202 119.18 416.469 110.744C414.708 90.4624 415.765 66.2835 425.631 43.3519C435.497 20.4204 452.946 4.52893 455.292 2.47819C457.287 0.7023 457.35 -2.06725 452.114 2.4641Z" fill="#2E9999"/>
<path d="M402.728 156.833H402.065C391.234 156.551 384.828 151.9 381.368 148.074C374.511 140.47 374.13 130.998 374.511 126.03C375.124 117.277 378.676 101.59 383.552 86.0934C383.832 85.2075 383.9 84.268 383.749 83.3511C383.598 82.4343 383.234 81.5658 382.684 80.8163C382.135 80.0667 381.417 79.4571 380.588 79.0369C379.76 78.6168 378.844 78.3978 377.914 78.3979H322.474V73.4648H377.907C379.61 73.4656 381.288 73.8668 382.807 74.6361C384.325 75.4053 385.642 76.521 386.649 77.893C387.657 79.265 388.328 80.8548 388.608 82.534C388.887 84.2132 388.768 85.9346 388.26 87.5592C383.482 102.725 380.014 117.961 379.43 126.375C379.105 130.604 379.43 138.518 385.067 144.754C387.886 147.876 393.143 151.646 402.22 151.893H402.763C405.251 151.875 407.719 151.452 410.071 150.639H410.12C410.825 150.392 411.452 150.145 412.058 149.878H412.114C416.497 147.91 420.135 144.591 422.495 140.406L422.692 140.04C423.986 137.278 424.799 134.315 425.095 131.28C425.716 125.924 425.37 119.455 424.553 110.082C424.102 104.881 423.883 99.7368 423.89 94.7897C423.935 89.1198 426.221 83.698 430.249 79.7079C434.278 75.7178 439.721 73.4836 445.391 73.493H500V78.4261H445.37C441.006 78.4147 436.814 80.1306 433.71 83.199C430.605 86.2674 428.841 90.4392 428.802 94.8038C428.802 99.6029 429.007 104.599 429.451 109.659C430.289 119.342 430.649 126.079 429.972 131.858C429.616 135.448 428.643 138.95 427.097 142.21L426.787 142.802C423.903 147.915 419.457 151.97 414.102 154.374H414.024C413.32 154.705 412.53 155.001 411.706 155.29H411.635C408.771 156.291 405.762 156.812 402.728 156.833Z" fill="#2E9999"/>
<path d="M13.1447 195.375C12.5908 196.341 11.7715 197.129 10.7839 197.644C9.5907 198.255 8.26193 198.553 6.92204 198.511C5.71765 198.528 4.52126 198.313 3.39844 197.877C2.41895 197.505 1.559 196.874 0.910777 196.051C0.294531 195.243 -0.0263054 194.248 0.00168835 193.232H2.28498C2.32042 193.706 2.45104 194.167 2.66901 194.588C2.88699 195.009 3.18782 195.383 3.55348 195.685C4.52537 196.398 5.71936 196.743 6.92204 196.657C8.2438 196.732 9.54655 196.316 10.5795 195.488C11.0122 195.126 11.3579 194.671 11.5909 194.158C11.824 193.644 11.9383 193.085 11.9255 192.521C11.967 191.752 11.7151 190.996 11.2208 190.406C10.7389 189.884 10.1329 189.491 9.45903 189.265C8.53643 188.957 7.59482 188.71 6.64015 188.525C5.46929 188.285 4.31752 187.96 3.19407 187.552C2.30937 187.206 1.53668 186.623 0.960108 185.868C0.290516 184.925 -0.0375943 183.781 0.0298778 182.626C-0.0016 181.823 0.147283 181.024 0.465585 180.286C0.783888 179.548 1.26352 178.891 1.8692 178.363C3.30742 177.22 5.11653 176.648 6.95023 176.756C8.57149 176.689 10.1657 177.188 11.4604 178.166C12.6156 179.083 13.3728 180.411 13.5746 181.872H11.1363C11.0849 181.426 10.9436 180.995 10.7207 180.605C10.4978 180.215 10.198 179.874 9.83957 179.603C8.92622 178.912 7.79762 178.568 6.65424 178.631C5.45792 178.572 4.27867 178.933 3.32092 179.652C2.89214 180.012 2.55389 180.467 2.33353 180.981C2.11317 181.495 2.01687 182.054 2.05242 182.612C2.00689 183.392 2.25872 184.16 2.75714 184.762C3.24573 185.298 3.86125 185.703 4.54713 185.939C5.48801 186.253 6.44849 186.504 7.42239 186.693C8.5877 186.946 9.73624 187.27 10.8614 187.665C11.7298 187.992 12.4907 188.553 13.0601 189.286C13.7135 190.202 14.0342 191.313 13.9692 192.436C13.9557 193.471 13.6714 194.484 13.1447 195.375Z" fill="#2E9999"/>
<path d="M20.9453 183.126V194.31C20.8798 194.943 21.056 195.577 21.4386 196.086C21.9368 196.479 22.5693 196.661 23.2004 196.593H25.6105V198.312H22.7353C20.0996 198.312 18.7818 196.985 18.7818 194.331V183.126H16.4351V181.399H18.7818V177.171H20.9453V181.399H25.6105V183.098L20.9453 183.126Z" fill="#2E9999"/>
<path d="M42.7565 181.4V198.314H40.593V195.565C40.0537 196.537 39.2431 197.33 38.2604 197.849C37.2459 198.363 36.1245 198.631 34.987 198.631C33.8495 198.631 32.728 198.363 31.7136 197.849C30.6908 197.304 29.8559 196.464 29.3175 195.438C28.687 194.223 28.3789 192.867 28.4225 191.499V181.4H30.5367V191.034C30.4311 192.563 30.9125 194.075 31.8827 195.262C32.879 196.195 34.1929 196.714 35.5578 196.714C36.9227 196.714 38.2366 196.195 39.2329 195.262C40.2031 194.075 40.6845 192.563 40.5789 191.034V181.4H42.7565Z" fill="#2E9999"/>
<path d="M58.4792 182.231C59.5882 182.924 60.4758 183.919 61.0373 185.099V175.431H63.2008V198.313H61.0373V194.606C60.4746 195.791 59.5876 196.793 58.4792 197.495C57.2813 198.261 55.8834 198.653 54.4623 198.623C52.9971 198.644 51.5554 198.253 50.3019 197.494C49.0483 196.735 48.0333 195.639 47.3728 194.331C46.6475 192.907 46.2822 191.327 46.3087 189.729C46.2736 188.16 46.6398 186.607 47.3728 185.219C48.0453 183.962 49.0558 182.917 50.2904 182.203C51.5615 181.483 53.0017 181.116 54.4623 181.139C55.879 181.105 57.2749 181.484 58.4792 182.231ZM51.6646 183.775C50.6966 184.318 49.9043 185.128 49.3813 186.107C48.7907 187.214 48.4969 188.454 48.5286 189.708C48.5051 190.985 48.8032 192.248 49.3954 193.38C49.9223 194.397 50.7103 195.256 51.6787 195.868C52.6062 196.447 53.6787 196.752 54.7724 196.748C55.8761 196.757 56.9609 196.462 57.9084 195.896C58.8769 195.318 59.667 194.484 60.1917 193.486C60.7481 192.357 61.0374 191.115 61.0374 189.856C61.0374 188.598 60.7481 187.356 60.1917 186.227C59.6629 185.232 58.8737 184.399 57.9084 183.817C56.9589 183.256 55.875 182.964 54.7724 182.971C53.6843 182.965 52.6132 183.241 51.6646 183.775Z" fill="#2E9999"/>
<path d="M67.8384 175.529C68.1357 175.232 68.5387 175.065 68.9589 175.065C69.3791 175.065 69.7821 175.232 70.0794 175.529C70.2237 175.674 70.3374 175.847 70.4136 176.037C70.4899 176.227 70.5272 176.431 70.5234 176.636C70.5293 176.847 70.4931 177.057 70.4169 177.255C70.3407 177.452 70.2259 177.632 70.0794 177.784C69.7803 178.078 69.378 178.242 68.9589 178.242C68.5398 178.242 68.1375 178.078 67.8384 177.784C67.6864 177.635 67.5667 177.456 67.4866 177.258C67.4066 177.061 67.3681 176.849 67.3733 176.636C67.3701 176.429 67.4098 176.224 67.4898 176.034C67.5699 175.843 67.6886 175.671 67.8384 175.529ZM70.0019 181.428V198.313H67.8384V181.399L70.0019 181.428Z" fill="#2E9999"/>
<path d="M86.2741 182.217C87.55 182.94 88.5993 184.004 89.3044 185.29C90.0663 186.689 90.4501 188.263 90.4178 189.856C90.4465 191.455 90.0397 193.031 89.2409 194.416C88.4867 195.718 87.3867 196.787 86.0626 197.503C84.7167 198.237 83.2055 198.616 81.6722 198.602C80.1887 198.63 78.7259 198.25 77.4439 197.503C76.2086 196.774 75.2065 195.708 74.5546 194.43C73.843 193.012 73.4897 191.442 73.5257 189.856C73.4912 188.264 73.8726 186.69 74.6321 185.29C75.341 184.007 76.3894 182.944 77.6624 182.217C78.9779 181.496 80.4539 181.118 81.9541 181.118C83.4543 181.118 84.9304 181.496 86.2459 182.217H86.2741ZM78.7688 183.669C77.8195 184.237 77.0538 185.066 76.563 186.058C75.9866 187.239 75.706 188.543 75.7456 189.856C75.7103 191.16 75.9731 192.454 76.5137 193.641C76.9668 194.634 77.7021 195.472 78.6279 196.051C79.5417 196.617 80.5973 196.913 81.6722 196.904C82.8076 196.912 83.9244 196.616 84.9061 196.046C85.8879 195.476 86.6986 194.652 87.2536 193.662C87.8858 192.508 88.1996 191.207 88.1627 189.892C88.1983 188.579 87.9 187.28 87.2959 186.114C86.7739 185.11 85.9772 184.274 84.9985 183.704C84.0447 183.156 82.9624 182.872 81.8625 182.88C80.7787 182.857 79.7091 183.129 78.7688 183.669Z" fill="#2E9999"/>
<path d="M117.88 195.558C115.944 197.395 113.245 198.314 109.782 198.314H103.236V176.982H109.782C111.824 176.924 113.848 177.364 115.681 178.264C117.294 179.08 118.616 180.375 119.465 181.971C120.38 183.754 120.834 185.739 120.783 187.743C120.783 191.135 119.815 193.74 117.88 195.558ZM116.315 194.29C117.809 192.739 118.556 190.562 118.556 187.757C118.556 184.952 117.809 182.774 116.315 181.224C114.821 179.674 112.644 178.896 109.782 178.891H105.399V196.622H109.782C112.653 196.622 114.831 195.845 116.315 194.29Z" fill="#2E9999"/>
<path d="M139.459 190.632H125.54C125.525 192.324 126.152 193.958 127.295 195.205C127.833 195.754 128.479 196.186 129.192 196.472C129.906 196.758 130.671 196.893 131.439 196.869C132.609 196.904 133.764 196.593 134.758 195.974C135.638 195.427 136.308 194.6 136.661 193.627H138.972C138.417 195.155 137.384 196.463 136.028 197.359C134.671 198.255 133.062 198.691 131.439 198.602C129.955 198.633 128.491 198.253 127.211 197.503C125.981 196.771 124.984 195.706 124.335 194.43C123.651 193 123.296 191.435 123.296 189.85C123.296 188.264 123.651 186.699 124.335 185.269C125.003 183.985 126.029 182.923 127.288 182.21C128.639 181.463 130.163 181.086 131.707 181.118C133.149 181.087 134.573 181.445 135.829 182.154C136.991 182.82 137.945 183.796 138.585 184.973C139.241 186.196 139.575 187.566 139.557 188.955C139.57 189.515 139.537 190.076 139.459 190.632ZM137.344 188.933C137.37 187.809 137.103 186.696 136.569 185.706C136.08 184.814 135.346 184.081 134.455 183.592C133.533 183.089 132.496 182.831 131.446 182.845C130.689 182.827 129.937 182.962 129.233 183.242C128.53 183.522 127.89 183.94 127.352 184.473C126.198 185.672 125.552 187.27 125.547 188.933H137.344Z" fill="#2E9999"/>
<path d="M150.466 181.118V183.373H149.846C149.225 183.332 148.603 183.417 148.016 183.624C147.43 183.831 146.892 184.156 146.435 184.578C145.641 185.382 145.244 186.761 145.244 188.715V198.313H143.081V181.4H145.244V184.219C146.174 182.152 147.915 181.118 150.466 181.118Z" fill="#2E9999"/>
<path d="M177.204 181.907C178.224 182.452 179.057 183.292 179.593 184.318C180.222 185.53 180.53 186.884 180.488 188.25V198.313H178.373V188.659C178.479 187.129 177.998 185.617 177.027 184.43C176.031 183.497 174.717 182.978 173.352 182.978C171.987 182.978 170.674 183.497 169.677 184.43C168.707 185.617 168.226 187.129 168.331 188.659V198.313H166.217V188.659C166.323 187.129 165.841 185.617 164.871 184.43C163.875 183.497 162.561 182.978 161.196 182.978C159.831 182.978 158.517 183.497 157.521 184.43C156.551 185.617 156.069 187.129 156.175 188.659V198.313H154.018V181.4H156.175V184.148C156.715 183.192 157.517 182.409 158.486 181.893C159.494 181.371 160.614 181.105 161.749 181.118C163.013 181.097 164.258 181.429 165.343 182.077C166.422 182.729 167.255 183.72 167.711 184.895C168.248 183.743 169.113 182.774 170.199 182.112C171.323 181.444 172.612 181.102 173.92 181.125C175.062 181.112 176.19 181.38 177.204 181.907Z" fill="#2E9999"/>
<path d="M196.062 182.231C197.171 182.924 198.058 183.919 198.62 185.1V181.4H200.769V198.313H198.655V194.606C198.092 195.792 197.205 196.793 196.097 197.496C194.899 198.261 193.501 198.653 192.08 198.623C190.615 198.644 189.173 198.253 187.92 197.494C186.666 196.736 185.651 195.639 184.99 194.331C184.265 192.907 183.9 191.327 183.926 189.73C183.891 188.16 184.258 186.608 184.99 185.219C185.663 183.962 186.674 182.917 187.908 182.203C189.179 181.483 190.619 181.116 192.08 181.139C193.485 181.112 194.868 181.491 196.062 182.231ZM189.247 183.775C188.279 184.319 187.487 185.128 186.964 186.107C186.373 187.214 186.079 188.455 186.111 189.708C186.088 190.986 186.386 192.248 186.978 193.38C187.505 194.397 188.293 195.256 189.261 195.868C190.189 196.447 191.261 196.753 192.355 196.749C193.459 196.757 194.543 196.462 195.491 195.896C196.459 195.318 197.249 194.484 197.774 193.486C198.33 192.357 198.62 191.115 198.62 189.856C198.62 188.598 198.33 187.356 197.774 186.227C197.245 185.232 196.456 184.399 195.491 183.817C194.541 183.256 193.457 182.964 192.355 182.971C191.267 182.965 190.196 183.242 189.247 183.775Z" fill="#2E9999"/>
<path d="M208.261 183.126V194.31C208.195 194.943 208.371 195.577 208.754 196.086C209.252 196.479 209.885 196.661 210.516 196.593H212.926V198.312H210.051C207.415 198.312 206.097 196.985 206.097 194.331V183.126H203.75V181.399H206.097V177.171H208.261V181.399H212.926V183.098L208.261 183.126Z" fill="#2E9999"/>
<path d="M227.548 182.217C228.821 182.944 229.87 184.007 230.578 185.29C231.34 186.689 231.724 188.263 231.692 189.856C231.721 191.455 231.314 193.031 230.515 194.416C229.758 195.719 228.656 196.787 227.33 197.503C225.986 198.237 224.477 198.616 222.946 198.602C221.463 198.631 220 198.251 218.718 197.503C217.483 196.774 216.481 195.708 215.829 194.43C215.115 193.013 214.759 191.443 214.793 189.856C214.76 188.263 215.144 186.689 215.906 185.29C216.611 184.004 217.661 182.94 218.936 182.217C220.252 181.496 221.728 181.118 223.228 181.118C224.728 181.118 226.204 181.496 227.52 182.217H227.548ZM220.043 183.669C219.092 184.235 218.326 185.065 217.837 186.058C217.246 187.235 216.951 188.539 216.977 189.856C216.944 191.16 217.21 192.455 217.753 193.641C218.205 194.635 218.94 195.473 219.867 196.051C220.784 196.604 221.84 196.888 222.911 196.868C224.027 196.874 225.125 196.587 226.096 196.037C227.097 195.465 227.923 194.632 228.485 193.627C229.118 192.473 229.431 191.172 229.395 189.856C229.432 188.545 229.136 187.245 228.535 186.079C228.012 185.072 227.213 184.236 226.23 183.669C225.277 183.12 224.194 182.836 223.094 182.844C222.017 182.836 220.957 183.121 220.029 183.669H220.043Z" fill="#2E9999"/>
<path d="M237.415 175.431V198.313H235.251V175.431H237.415Z" fill="#2E9999"/>
<path d="M253.665 182.217C254.94 182.942 255.989 184.005 256.696 185.29C257.458 186.689 257.841 188.263 257.809 189.856C257.838 191.455 257.431 193.031 256.632 194.416C255.878 195.718 254.778 196.787 253.454 197.503C252.108 198.237 250.597 198.616 249.063 198.602C247.58 198.631 246.117 198.251 244.835 197.503C243.6 196.774 242.598 195.708 241.946 194.43C241.242 193.011 240.896 191.44 240.938 189.856C240.906 188.263 241.29 186.689 242.052 185.29C242.757 184.004 243.806 182.94 245.082 182.217C246.397 181.496 247.873 181.118 249.374 181.118C250.874 181.118 252.35 181.496 253.665 182.217ZM246.16 183.669C245.211 184.237 244.445 185.066 243.954 186.058C243.378 187.239 243.097 188.543 243.137 189.856C243.102 191.16 243.364 192.454 243.905 193.641C244.357 194.635 245.093 195.473 246.019 196.051C246.937 196.604 247.992 196.887 249.063 196.868C250.18 196.874 251.278 196.587 252.249 196.037C253.249 195.465 254.075 194.632 254.638 193.627C255.272 192.474 255.589 191.172 255.554 189.856C255.589 188.544 255.291 187.245 254.687 186.079C254.165 185.072 253.365 184.236 252.383 183.669C251.432 183.12 250.352 182.836 249.254 182.844C248.167 182.832 247.097 183.117 246.16 183.669Z" fill="#2E9999"/>
<path d="M272.447 182.231C273.557 182.924 274.447 183.919 275.012 185.1V181.4H277.175V198.877C277.204 200.292 276.84 201.687 276.125 202.908C275.44 204.062 274.444 205 273.25 205.614C271.981 206.268 270.569 206.597 269.141 206.572C267.859 206.583 266.588 206.331 265.406 205.832C264.325 205.382 263.361 204.69 262.588 203.81C261.879 203.02 261.416 202.04 261.256 200.991H263.37C263.683 202.105 264.412 203.056 265.406 203.648C266.514 204.377 267.816 204.755 269.141 204.733C269.921 204.77 270.699 204.651 271.431 204.382C272.164 204.113 272.835 203.701 273.405 203.169C273.957 202.607 274.384 201.937 274.661 201.2C274.938 200.463 275.057 199.677 275.012 198.891V194.599C274.446 195.785 273.557 196.787 272.447 197.489C271.249 198.255 269.851 198.648 268.43 198.616C266.969 198.629 265.534 198.233 264.287 197.472C263.04 196.711 262.031 195.616 261.375 194.31C260.648 192.887 260.28 191.307 260.304 189.708C260.271 188.138 260.64 186.586 261.375 185.198C262.044 183.938 263.055 182.892 264.293 182.182C265.551 181.468 266.976 181.101 268.423 181.118C269.844 181.087 271.243 181.474 272.447 182.231ZM265.639 183.775C264.671 184.32 263.876 185.129 263.349 186.107C262.763 187.216 262.472 188.456 262.503 189.708C262.48 190.986 262.778 192.248 263.37 193.38C263.895 194.399 264.683 195.258 265.653 195.868C266.578 196.447 267.648 196.753 268.74 196.749C269.844 196.758 270.929 196.463 271.876 195.896C272.846 195.318 273.639 194.484 274.166 193.486C274.722 192.357 275.012 191.115 275.012 189.856C275.012 188.598 274.722 187.356 274.166 186.227C273.635 185.231 272.843 184.398 271.876 183.817C270.927 183.255 269.843 182.963 268.74 182.971C267.654 182.966 266.585 183.242 265.639 183.775Z" fill="#2E9999"/>
<path d="M281.812 175.529C281.956 175.38 282.129 175.262 282.321 175.182C282.512 175.102 282.718 175.062 282.925 175.064C283.135 175.058 283.344 175.097 283.539 175.177C283.733 175.257 283.908 175.377 284.053 175.529C284.198 175.674 284.313 175.847 284.39 176.037C284.468 176.227 284.507 176.43 284.504 176.636C284.509 176.847 284.471 177.058 284.394 177.255C284.316 177.452 284.2 177.632 284.053 177.784C283.907 177.934 283.731 178.052 283.537 178.131C283.343 178.21 283.135 178.248 282.925 178.242C282.719 178.244 282.513 178.205 282.322 178.126C282.131 178.048 281.957 177.931 281.812 177.784C281.662 177.633 281.545 177.454 281.466 177.257C281.387 177.059 281.349 176.848 281.354 176.636C281.351 176.43 281.39 176.225 281.469 176.035C281.548 175.845 281.664 175.673 281.812 175.529ZM283.975 181.428V198.313H281.812V181.399L283.975 181.428Z" fill="#2E9999"/>
<path d="M300.543 182.506C301.827 183.493 302.755 184.871 303.186 186.431H300.839C300.536 185.364 299.877 184.431 298.972 183.789C297.979 183.132 296.807 182.802 295.617 182.844C294.818 182.817 294.022 182.965 293.285 183.278C292.549 183.591 291.89 184.061 291.354 184.656C290.264 185.858 289.719 187.592 289.719 189.856C289.719 192.104 290.261 193.831 291.354 195.05C291.888 195.647 292.547 196.119 293.284 196.433C294.02 196.747 294.817 196.896 295.617 196.868C296.806 196.913 297.979 196.585 298.972 195.931C299.877 195.288 300.536 194.356 300.839 193.288H303.158C302.674 194.819 301.735 196.166 300.466 197.15C299.058 198.163 297.35 198.674 295.617 198.602C294.133 198.632 292.67 198.252 291.389 197.503C290.159 196.771 289.162 195.705 288.514 194.43C287.827 193.001 287.47 191.435 287.47 189.849C287.47 188.263 287.827 186.698 288.514 185.269C289.162 183.993 290.159 182.928 291.389 182.196C292.796 181.428 294.382 181.049 295.984 181.1C297.586 181.151 299.146 181.629 300.501 182.485L300.543 182.506Z" fill="#2E9999"/>
<path d="M318.782 182.217C320.057 182.942 321.105 184.005 321.812 185.29C322.574 186.689 322.958 188.263 322.926 189.856C322.954 191.455 322.548 193.031 321.749 194.416C320.992 195.719 319.889 196.787 318.564 197.503C317.22 198.237 315.711 198.616 314.18 198.602C312.696 198.631 311.233 198.251 309.952 197.503C308.717 196.774 307.714 195.708 307.063 194.43C306.358 193.011 306.012 191.44 306.055 189.856C306.022 188.263 306.406 186.689 307.168 185.29C307.873 184.004 308.923 182.94 310.199 182.217C311.514 181.496 312.99 181.118 314.49 181.118C315.99 181.118 317.466 181.496 318.782 182.217ZM311.277 183.669C310.326 184.235 309.559 185.065 309.071 186.058C308.492 187.238 308.209 188.542 308.246 189.856C308.213 191.16 308.479 192.455 309.022 193.641C309.474 194.635 310.209 195.473 311.136 196.051C312.053 196.604 313.109 196.888 314.18 196.868C315.314 196.876 316.43 196.579 317.41 196.009C318.39 195.439 319.2 194.616 319.755 193.627C320.389 192.474 320.705 191.172 320.671 189.856C320.706 188.544 320.408 187.245 319.804 186.079C319.281 185.072 318.482 184.236 317.499 183.669C316.546 183.12 315.463 182.836 314.363 182.844C313.279 182.833 312.211 183.118 311.277 183.669Z" fill="#2E9999"/>
<path d="M336.604 176.981L343.707 195.854L350.874 176.981H353.164L344.792 198.313H342.678L334.306 177.003L336.604 176.981Z" fill="#2E9999"/>
<path d="M371.417 190.631H357.52C357.504 192.325 358.134 193.96 359.282 195.205C359.815 195.761 360.458 196.199 361.171 196.491C361.883 196.784 362.649 196.924 363.418 196.903C364.589 196.939 365.744 196.628 366.738 196.008C367.617 195.462 368.287 194.635 368.64 193.662H370.952C370.396 195.19 369.364 196.498 368.007 197.394C366.651 198.29 365.042 198.726 363.418 198.637C361.934 198.668 360.471 198.288 359.19 197.538C357.96 196.806 356.964 195.74 356.315 194.465C355.631 193.035 355.275 191.47 355.275 189.884C355.275 188.299 355.631 186.734 356.315 185.304C356.983 184.02 358.008 182.958 359.268 182.245C360.613 181.506 362.13 181.134 363.665 181.167C365.109 181.137 366.536 181.495 367.795 182.203C368.956 182.867 369.908 183.844 370.543 185.022C371.199 186.245 371.534 187.615 371.516 189.004C371.526 189.548 371.493 190.092 371.417 190.631ZM369.303 188.933C369.331 187.809 369.066 186.697 368.535 185.705C368.042 184.816 367.31 184.083 366.42 183.591C365.498 183.088 364.462 182.831 363.411 182.844C362.655 182.827 361.902 182.962 361.198 183.242C360.495 183.521 359.855 183.94 359.317 184.472C358.164 185.671 357.518 187.269 357.513 188.933H369.303Z" fill="#2E9999"/>
<path d="M377.907 183.126V194.31C377.842 194.943 378.018 195.577 378.401 196.086C378.898 196.48 379.531 196.663 380.162 196.593H382.587V198.312H379.697C377.062 198.312 375.744 196.985 375.744 194.331V183.126H373.425V181.399H375.772V177.171H377.936V181.399H382.587V183.098L377.907 183.126Z" fill="#2E9999"/>
<path d="M400.579 190.631H386.675C386.661 192.323 387.291 193.958 388.437 195.204C388.975 195.753 389.621 196.184 390.334 196.471C391.047 196.757 391.812 196.892 392.58 196.867C393.751 196.903 394.906 196.592 395.9 195.972C396.779 195.426 397.449 194.599 397.802 193.626H400.114C399.555 195.152 398.522 196.458 397.166 197.354C395.81 198.249 394.203 198.686 392.58 198.601C391.097 198.63 389.634 198.25 388.352 197.502C387.126 196.768 386.132 195.703 385.484 194.429C384.799 192.999 384.444 191.434 384.444 189.848C384.444 188.263 384.799 186.698 385.484 185.268C386.152 183.984 387.177 182.922 388.437 182.209C389.782 181.469 391.299 181.097 392.834 181.131C394.276 181.1 395.7 181.458 396.957 182.167C398.118 182.831 399.07 183.808 399.705 184.986C400.366 186.208 400.703 187.578 400.685 188.968C400.694 189.524 400.659 190.08 400.579 190.631ZM398.465 188.932C398.49 187.807 398.223 186.695 397.689 185.705C397.2 184.813 396.467 184.08 395.575 183.59C394.653 183.087 393.617 182.83 392.566 182.843C391.809 182.826 391.057 182.961 390.353 183.241C389.65 183.521 389.01 183.939 388.472 184.471C387.319 185.672 386.671 187.268 386.661 188.932H398.465Z" fill="#2E9999"/>
<path d="M411.607 181.118V183.373H410.987C410.366 183.332 409.744 183.417 409.157 183.624C408.571 183.831 408.033 184.156 407.576 184.578C406.782 185.382 406.385 186.761 406.385 188.715V198.313H404.222V181.4H406.385V184.219C407.315 182.147 409.049 181.118 411.607 181.118Z" fill="#2E9999"/>
<path d="M415.124 175.529C415.268 175.379 415.441 175.261 415.632 175.181C415.824 175.101 416.029 175.061 416.237 175.064C416.444 175.062 416.65 175.101 416.842 175.179C417.034 175.257 417.208 175.373 417.355 175.519C417.502 175.665 417.618 175.839 417.697 176.031C417.776 176.223 417.816 176.428 417.816 176.635C417.822 176.847 417.785 177.058 417.707 177.256C417.63 177.453 417.513 177.633 417.365 177.784C417.218 177.934 417.043 178.052 416.849 178.13C416.655 178.209 416.446 178.247 416.237 178.242C416.03 178.244 415.825 178.205 415.634 178.126C415.442 178.047 415.269 177.931 415.124 177.784C414.974 177.633 414.856 177.454 414.777 177.256C414.699 177.059 414.661 176.848 414.665 176.635C414.663 176.429 414.702 176.225 414.781 176.035C414.859 175.844 414.976 175.672 415.124 175.529ZM417.287 181.427V198.312H415.124V181.399L417.287 181.427Z" fill="#2E9999"/>
<path d="M432.968 181.908C433.99 182.452 434.825 183.292 435.364 184.318C435.99 185.532 436.298 186.885 436.259 188.25V198.314H434.144V188.659C434.144 186.806 433.701 185.389 432.806 184.431C431.808 183.497 430.493 182.978 429.127 182.978C427.761 182.978 426.446 183.497 425.448 184.431C424.553 185.396 424.109 186.813 424.109 188.659V198.314H421.946V181.4H424.109V184.149C424.647 183.176 425.458 182.382 426.442 181.866C427.456 181.351 428.578 181.083 429.715 181.083C430.853 181.083 431.974 181.351 432.989 181.866L432.968 181.908Z" fill="#2E9999"/>
<path d="M451.826 182.231C452.935 182.925 453.825 183.92 454.391 185.1V181.4H456.583V198.313H454.426V194.606C453.857 195.79 452.969 196.79 451.861 197.496C450.663 198.261 449.265 198.653 447.844 198.623C446.379 198.644 444.938 198.253 443.684 197.494C442.43 196.736 441.415 195.639 440.755 194.331C440.03 192.907 439.664 191.327 439.691 189.73C439.656 188.16 440.022 186.608 440.755 185.219C441.427 183.962 442.438 182.917 443.672 182.203C444.944 181.484 446.384 181.117 447.844 181.139C449.249 181.112 450.632 181.491 451.826 182.231ZM445.011 183.775C444.043 184.319 443.251 185.128 442.728 186.107C442.138 187.214 441.844 188.455 441.875 189.708C441.852 190.986 442.15 192.248 442.742 193.38C443.269 194.397 444.057 195.256 445.025 195.868C445.953 196.447 447.026 196.753 448.119 196.749C449.235 196.754 450.331 196.453 451.286 195.877C452.242 195.302 453.021 194.474 453.539 193.486C454.1 192.358 454.392 191.116 454.392 189.856C454.392 188.597 454.1 187.355 453.539 186.227C453.012 185.23 452.222 184.397 451.255 183.817C450.306 183.256 449.222 182.964 448.119 182.971C447.031 182.965 445.96 183.242 445.011 183.775Z" fill="#2E9999"/>
<path d="M468.563 181.118V183.373H467.943C467.321 183.332 466.698 183.417 466.11 183.625C465.523 183.832 464.983 184.156 464.525 184.578C463.736 185.382 463.341 186.761 463.341 188.715V198.313H461.178V181.4H463.341V184.219C464.271 182.152 466.012 181.118 468.563 181.118Z" fill="#2E9999"/>
<path d="M472.086 175.529C472.231 175.38 472.404 175.262 472.595 175.182C472.787 175.102 472.992 175.062 473.2 175.064C473.41 175.058 473.619 175.097 473.813 175.177C474.007 175.257 474.183 175.377 474.327 175.529C474.472 175.674 474.585 175.847 474.662 176.037C474.738 176.227 474.775 176.431 474.771 176.636C474.777 176.847 474.741 177.057 474.665 177.255C474.589 177.452 474.474 177.632 474.327 177.784C474.181 177.934 474.005 178.052 473.811 178.131C473.617 178.21 473.409 178.248 473.2 178.242C472.99 178.242 472.783 178.201 472.589 178.12C472.396 178.038 472.221 177.92 472.074 177.77C471.927 177.62 471.811 177.443 471.733 177.248C471.656 177.054 471.618 176.845 471.621 176.636C471.618 176.429 471.658 176.224 471.738 176.034C471.818 175.843 471.937 175.671 472.086 175.529ZM474.25 181.428V198.313H472.086V181.399L474.25 181.428Z" fill="#2E9999"/>
<path d="M490.529 182.217C491.802 182.944 492.85 184.007 493.559 185.29C494.309 186.693 494.681 188.266 494.637 189.856C494.669 191.454 494.264 193.03 493.468 194.416C492.711 195.719 491.608 196.787 490.282 197.503C488.939 198.237 487.43 198.616 485.899 198.602C484.415 198.631 482.952 198.251 481.671 197.503C480.434 196.776 479.431 195.709 478.781 194.43C478.067 193.013 477.712 191.443 477.745 189.856C477.713 188.263 478.097 186.689 478.859 185.29C479.563 184.006 480.61 182.942 481.882 182.217C483.199 181.496 484.676 181.118 486.177 181.118C487.679 181.118 489.156 181.496 490.473 182.217H490.529ZM483.024 183.669C482.072 184.237 481.304 185.066 480.811 186.058C480.238 187.24 479.957 188.543 479.993 189.856C479.96 191.16 480.226 192.455 480.769 193.641C481.221 194.634 481.956 195.473 482.883 196.051C483.8 196.604 484.856 196.888 485.927 196.868C487.061 196.876 488.177 196.579 489.157 196.009C490.137 195.439 490.947 194.616 491.501 193.627C492.134 192.473 492.447 191.172 492.411 189.856C492.444 188.545 492.148 187.247 491.551 186.079C491.028 185.072 490.229 184.236 489.246 183.669C488.293 183.12 487.21 182.836 486.11 182.844C485.025 182.831 483.958 183.116 483.024 183.669Z" fill="#2E9999"/>
<path d="M489.528 165.614H0.0012207V167.728H489.528V165.614Z" fill="#2E9999"/>
<path d="M64.3774 136.861C60.8565 142.919 55.6045 147.786 49.2964 150.836C42.7847 154.073 35.202 155.689 26.548 155.685H0.0012207V74.4092H26.548C35.202 74.4092 42.7847 76.0535 49.2964 79.3422C55.6303 82.494 60.8809 87.4624 64.3774 93.6128C67.9198 99.8284 69.6909 107.071 69.6909 115.339C69.6909 123.608 67.9198 130.782 64.3774 136.861ZM48.3591 137.446C53.4613 132.062 56.0147 124.693 56.0194 115.339C56.0194 105.91 53.466 98.5247 48.3591 93.1829C43.2522 87.8411 35.9819 85.1703 26.548 85.1703H13.3134V145.515H26.5269C35.9748 145.515 43.2522 142.826 48.3591 137.446Z" fill="#2E9999"/>
<path d="M89.586 84.705V109.37H117.648V119.659H89.586V145.269H121.136V155.677H76.2527V74.2822H121.136V84.6909L89.586 84.705Z" fill="#2E9999"/>
<path d="M138.585 74.4092L162.545 141.886L186.753 74.4092H200.91L170.389 155.685H154.963L124.314 74.4092H138.585Z" fill="#2E9999"/>
<path d="M218.69 84.705V109.37H246.752V119.659H218.69V145.269H250.262V155.677H205.357V74.2822H250.262V84.6909L218.69 84.705Z" fill="#2E9999"/>
<path d="M312.474 74.4092V84.8531H290.839V155.685H277.506V84.8531H255.737V74.4092H312.474Z" fill="#2E9999"/>
</svg>
